Complete name : Spartacus.Blood.and.Sand.S01E13.HDTV.x264.Kill Them All-Ipolitan.avi
      Format : AVI
      Format/Info : Audio Video Interleave
      File size : 727 MiB
      Duration : 55mn 4s
      Overall bit rate : 1 846 Kbps
      Writing application : Lavf52.44.0
   Video
      Format : AVC
      Format/Info : Advanced Video Codec
      Format profile : Baseline@L1.3
      Format settings, CABAC : No
      Format settings, ReFrames : 2 frames
      Codec ID : H264
      Duration : 55mn 4s
      Bit rate : 1 516 Kbps
      Nominal bit rate : 1 500 Kbps
      Width : 1 280 pixels
      Height : 720 pixels
      Display aspect ratio : 16/9
      Frame rate : 23.976 fps
      Resolution : 24 bits
      Colorimetry : 4:2:0
      Scan type : Progressive
      Bits/(Pixel*Frame) : 0.069
      Stream size : 597 MiB (82%)
      Writing library : x264 core 80 r1376 3feaec2
   Audio
      Format : AC-3
      Format/Info : Audio Coding 3
      Codec ID : 2000
      Duration : 55mn 3s
      Bit rate mode : Constant
      Bit rate : 320 Kbps
      Channel(s) : 2 channels
      Channel positions : L R
      Sampling rate : 48.0 KHz
      Resolution : 16 bits
      Stream size : 126 MiB (17%)
      Alignment : Aligned on interleaves
      Interleave, duration : 32 ms (0.77 video frame)
      Interleave, preload duration : 32 


NO-RAR


I P O L I T A N - W o r l d  o f  e n t e r t a i n m e n t

ipolitan.wordpress com


Seed and enjoy !